<svg xmlns="http://www.w3.org/2000/svg" viewBox="0 0 100 100">
  <defs>
    <linearGradient id="bg" x1="0%" y1="0%" x2="100%" y2="100%">
      <stop offset="0%" style="stop-color:#6366f1"/>
      <stop offset="100%" style="stop-color:#818cf8"/>
    </linearGradient>
  </defs>
  <rect width="100" height="100" rx="20" fill="url(#bg)"/>
  <rect x="15" y="25" width="70" height="60" rx="8" fill="white" opacity="0.95"/>
  <rect x="15" y="25" width="70" height="15" rx="8" fill="#1a1a2e"/>
  <circle cx="30" cy="32.5" r="4" fill="#ef4444"/>
  <circle cx="50" cy="32.5" r="4" fill="#f59e0b"/>
  <circle cx="70" cy="32.5" r="4" fill="#22c55e"/>
  <rect x="22" y="48" width="12" height="12" rx="2" fill="#e74c3c"/>
  <rect x="38" y="48" width="12" height="12" rx="2" fill="#3498db"/>
  <rect x="54" y="48" width="12" height="12" rx="2" fill="#2ecc71"/>
  <rect x="22" y="64" width="12" height="12" rx="2" fill="#9b59b6"/>
  <rect x="38" y="64" width="12" height="12" rx="2" fill="#f39c12"/>
  <rect x="54" y="64" width="12" height="12" rx="2" fill="#1abc9c"/>
  <rect x="70" y="48" width="8" height="28" rx="2" fill="#1a1a2e" opacity="0.3"/>
</svg>

